<?xml version="1.0" encoding="UTF-8" standalone="no"?><!-- Generator: Gravit.io --><svg xmlns="http://www.w3.org/2000/svg" xmlns:xlink="http://www.w3.org/1999/xlink" style="isolation:isolate" viewBox="662.016 345.773 46.959 46.965" width="46.959pt" height="46.965pt"><defs><clipPath id="_clipPath_pxEceQaxv0oPDjFKUzilGG2SOw4swrj4"><rect x="662.016" y="345.773" width="46.959" height="46.965"/></clipPath></defs><g clip-path="url(#_clipPath_pxEceQaxv0oPDjFKUzilGG2SOw4swrj4)"><path d=" M 666.477 355.489 L 666.8 355.064 L 667.123 354.639 C 667.934 353.57 669.446 352.025 670.498 351.192 L 670.916 350.86 L 671.335 350.529 C 672.386 349.695 674.235 348.575 675.461 348.029 L 675.949 347.812 L 676.436 347.595 C 677.662 347.049 679.732 346.425 681.055 346.201 L 681.581 346.112 L 682.107 346.023 C 683.431 345.799 685.59 345.709 686.928 345.821 L 687.459 345.866 L 687.991 345.91 C 689.328 346.022 691.443 346.472 692.71 346.913 L 693.214 347.089 L 693.718 347.264 C 694.986 347.706 696.922 348.667 698.04 349.409 L 698.484 349.705 L 698.929 350 C 700.046 350.743 701.683 352.155 702.581 353.152 L 702.938 353.549 L 703.295 353.946 C 704.193 354.943 705.427 356.718 706.048 357.907 L 706.296 358.38 L 706.543 358.853 C 707.165 360.042 707.918 362.069 708.224 363.375 L 708.346 363.895 L 708.468 364.414 C 708.775 365.721 709.001 367.871 708.973 369.212 L 708.961 369.746 L 708.95 370.279 C 708.922 371.621 708.606 373.76 708.245 375.052 L 708.102 375.566 L 707.958 376.08 C 707.597 377.373 706.76 379.365 706.089 380.528 L 705.822 380.99 L 705.555 381.452 C 704.884 382.614 703.577 384.336 702.638 385.295 L 702.265 385.676 L 701.891 386.057 C 700.953 387.016 699.258 388.359 698.111 389.054 L 697.654 389.331 L 697.198 389.607 C 696.05 390.302 694.075 391.182 692.79 391.569 L 692.279 391.724 L 691.768 391.878 C 690.484 392.266 688.352 392.626 687.012 392.682 L 686.478 392.705 L 685.945 392.727 C 684.604 392.783 682.45 392.602 681.138 392.323 L 680.615 392.212 L 680.093 392.102 C 678.781 391.823 676.739 391.112 675.537 390.515 L 675.059 390.278 L 674.581 390.04 C 673.379 389.444 671.579 388.247 670.563 387.371 L 670.159 387.022 L 669.755 386.673 C 668.739 385.796 667.293 384.19 666.527 383.088 L 666.222 382.65 L 665.918 382.211 C 665.152 381.109 664.15 379.194 663.682 377.936 L 663.496 377.436 L 663.31 376.935 C 662.843 375.678 662.349 373.573 662.209 372.238 L 662.153 371.708 L 662.097 371.177 C 661.957 369.842 662.002 367.681 662.198 366.354 L 662.276 365.826 L 662.354 365.298 C 662.55 363.97 663.131 361.888 663.651 360.651 L 663.858 360.159 L 664.065 359.667 C 664.585 358.43 665.666 356.558 666.477 355.489 Z " fill="rgb(255,255,255)"/><radialGradient id="_rgradient_2" fx="0.7124349246904504" fy="0.09675704391426976" cx="0.5" cy="0.5" r="0.5" gradientTransform="matrix(-39.619,10.616,-10.479,-42.463,714.435,387.65)" gradientUnits="userSpaceOnUse"><stop offset="0%" stop-opacity="1" style="stop-color:rgb(0,0,100)"/><stop offset="19.166666666666668%" stop-opacity="1" style="stop-color:rgb(0,0,94)"/><stop offset="97.5%" stop-opacity="1" style="stop-color:rgb(0,0,0)"/></radialGradient><path d=" M 675.521 357.225 L 685.5 357.225 L 695.479 357.225 C 701.69 357.225 704.211 361.592 701.105 366.971 L 696.116 375.613 L 691.126 384.255 C 688.021 389.633 682.979 389.633 679.874 384.255 L 674.884 375.613 L 669.895 366.971 C 666.789 361.592 669.31 357.225 675.521 357.225 Z " fill="url(#_rgradient_2)"/></g></svg>